<svg preserveAspectRatio="xMidYMid meet" data-bbox="10.501 68.499 178.998 62.999" viewBox="10.501 68.499 178.998 62.999" height="200" width="200" xmlns="http://www.w3.org/2000/svg" data-type="color" role="presentation" aria-hidden="true"><defs><style>#comp-ku8a9nao svg [data-color="1"] {fill: #242323;}</style></defs>
    <g>
        <path d="M58.564 84.256a24.791 24.791 0 0 1-1.713-1.028 1.198 1.198 0 0 0-1.662.331 1.188 1.188 0 0 0 .332 1.653c.547.362 1.178.742 1.879 1.128a1.199 1.199 0 0 0 1.629-.464 1.186 1.186 0 0 0-.465-1.62z" fill="#242323" data-color="1"></path>
        <path d="M40.825 101.063l-2.696-.149a1.182 1.182 0 0 0-1.263 1.124 1.193 1.193 0 0 0 1.129 1.256l2.696.149.068.002c.631 0 1.16-.491 1.195-1.126a1.193 1.193 0 0 0-1.129-1.256z" fill="#242323" data-color="1"></path>
        <path d="M143.665 85.71c.206 0 .414-.052.605-.163.42-.246 1.938-1.135 2.305-1.379.551-.366.7-1.105.332-1.653a1.203 1.203 0 0 0-1.662-.331c-.349.232-1.789 1.072-2.188 1.304a1.19 1.19 0 0 0-.428 1.632 1.2 1.2 0 0 0 1.036.59z" fill="#242323" data-color="1"></path>
        <path d="M161.872 100.914l-2.696.149a1.192 1.192 0 0 0 .066 2.382l.068-.002 2.696-.149a1.192 1.192 0 1 0-.134-2.38z" fill="#242323" data-color="1"></path>
        <path d="M133.121 115.506a1.19 1.19 0 0 0 .645 1.559l1.797.745a1.198 1.198 0 0 0 1.567-.642 1.19 1.19 0 0 0-.645-1.559l-1.797-.745a1.203 1.203 0 0 0-1.567.642z" fill="#242323" data-color="1"></path>
        <path d="M65.312 114.865l-1.797.745a1.19 1.19 0 0 0-.645 1.559 1.198 1.198 0 0 0 1.567.642l1.797-.745c.611-.253.9-.951.645-1.559a1.2 1.2 0 0 0-1.567-.642z" fill="#242323" data-color="1"></path>
        <path d="M188.231 97.039c-.201.012-20.277 1.136-26.805-2.112-4.79-2.383-10.98-2.767-14.966-2.717 9.436-6.767 16.346-17.25 16.785-17.925a1.187 1.187 0 0 0-.176-1.506 1.2 1.2 0 0 0-1.519-.118c-.078.055-7.932 5.447-18.185 5.447-11.003 0-17.155 3.748-17.412 3.908-.106.066-.183.156-.26.245a7.941 7.941 0 0 0-2.536-1.637c-2.681-1.097-5.905-.882-8.621.335.904-3.263.296-7.012-1.84-9.607-1.514-1.84-3.556-2.853-5.748-2.853-2.193 0-4.235 1.013-5.749 2.853l-1.368 1.662-1.369-1.662c-1.514-1.84-3.556-2.853-5.748-2.853s-4.234 1.013-5.748 2.853c-2.111 2.565-2.731 6.258-1.873 9.494-2.657-1.108-5.75-1.284-8.336-.24a7.931 7.931 0 0 0-2.509 1.597c-.064-.065-.118-.137-.199-.188-.257-.16-6.409-3.908-17.412-3.908-10.254 0-18.107-5.392-18.185-5.447a1.202 1.202 0 0 0-1.519.118 1.188 1.188 0 0 0-.176 1.506c.439.675 7.347 11.158 16.782 17.925-3.986-.049-10.176.334-14.964 2.717-6.525 3.246-26.603 2.123-26.805 2.112a1.186 1.186 0 0 0-1.235.908 1.189 1.189 0 0 0 .676 1.37c21.936 9.744 37.84 12.198 48.302 12.198.401 0 .779-.01 1.164-.016-2.934 2.78-9.035 8.822-10.817 12.603a1.189 1.189 0 0 0 .277 1.388 1.203 1.203 0 0 0 1.414.147c.048-.029 4.929-2.852 9.537-3.268 1.829-.165 4.086-.16 6.269-.161 4.029.023 6.573-.027 7.923-.669.299.311.623.6.984.85 1.752 1.211 3.969 1.496 6.24.801l1.962-.601.118 2.038c.138 2.36 1.178 4.328 2.931 5.54 1.125.778 2.441 1.174 3.84 1.174.781 0 1.587-.123 2.401-.373 2.581-.789 4.804-2.76 6.172-5.177 1.313 2.454 3.508 4.474 6.094 5.304.844.27 1.683.404 2.496.404a6.725 6.725 0 0 0 3.763-1.117c1.78-1.183 2.865-3.13 3.057-5.483l.166-2.045 1.962.63c2.257.722 4.48.469 6.26-.713.48-.319.905-.698 1.28-1.121 1.409.531 3.868.577 7.637.557 2.187.002 4.441-.003 6.269.161 4.608.417 9.489 3.239 9.537 3.268a1.203 1.203 0 0 0 1.414-.147c.387-.353.501-.914.277-1.388-1.782-3.782-7.883-9.823-10.817-12.603.385.007.763.016 1.164.016 10.462 0 26.368-2.456 48.302-12.198a1.19 1.19 0 0 0 .676-1.37 1.208 1.208 0 0 0-1.234-.906zm-47.88-9.543c.247.02.5-.02.714-.129a1.19 1.19 0 0 0 .38-1.818 1.224 1.224 0 0 0-.407-.423 1.317 1.317 0 0 0-1.202-.036c-4.275 2.12-9.818 4.089-12.907 5.126.824-1.621 1.03-3.361.555-5.016a6.522 6.522 0 0 0-.437-1.096c.059-.025.122-.032.178-.067.056-.035 5.82-3.544 16.141-3.544 6.065 0 11.268-1.703 14.782-3.278-5.371 6.864-16.954 19.537-28.423 18.19-.093-.012-.178.011-.266.02a7.98 7.98 0 0 0-2.513-1.615l-1.483-.606c1.256-.393 8.95-2.846 14.888-5.708zm-18.106-4.666c1.508.617 2.551 1.691 2.934 3.025.383 1.334.07 2.793-.884 4.11l-2.096 2.897c-.214.296-.28.673-.18 1.025.101.35.358.636.697.774l3.319 1.355c1.508.617 2.551 1.691 2.934 3.025.135.469.153.955.118 1.443a1.18 1.18 0 0 0-.239.897c.007.046.034.082.045.126a5.58 5.58 0 0 1-.807 1.645c-.224.31-.477.602-.754.873a8.205 8.205 0 0 1-1.91 1.382 9.577 9.577 0 0 1-3.455 1.049c-.4.042-.801.058-1.198.047a8.05 8.05 0 0 1-1.176-.118c-.061-.021-.12-.048-.181-.068l-2.134-.684-3.892-1.59-3.892-1.59c.085-.36.152-.727.197-1.099a9.28 9.28 0 0 0 .071-1.137c0-.486-.048-.96-.116-1.427.91-.241 2.617-.725 5.911-1.698.634-.187.996-.851.807-1.483a1.203 1.203 0 0 0-1.491-.803c-1.928.57-4.604 1.347-5.855 1.687a9.88 9.88 0 0 0-2.198-3.266l5.475-7.564c2.088-2.884 6.646-4.181 9.95-2.833zm-33.427-9.966c1.051-1.276 2.434-1.979 3.895-1.979s2.844.703 3.895 1.979l2.295 2.788c.455.552 1.398.552 1.854 0l2.295-2.788c1.051-1.276 2.434-1.979 3.895-1.979 1.46 0 2.844.703 3.895 1.979 2.276 2.765 2.276 7.439 0 10.205l-6.787 8.245a10.016 10.016 0 0 0-2.005-.69 9.667 9.667 0 0 0-1.213-.19v-7.9c0-.659-.536-1.192-1.198-1.192-.662 0-1.198.533-1.198 1.192v7.965a9.79 9.79 0 0 0-1.815.438c-.34.119-.671.256-.993.41l-6.813-8.278c-2.279-2.766-2.279-7.439-.002-10.205zM74.739 85.8c.379-1.317 1.414-2.377 2.917-2.983.885-.357 1.86-.526 2.853-.526 2.715 0 5.57 1.259 7.105 3.359l5.447 7.459a9.817 9.817 0 0 0-.806.875c-.293.354-.56.729-.802 1.122a9.898 9.898 0 0 0-.571 1.054c-1.867-.629-5.882-1.975-6.389-2.075a1.18 1.18 0 0 0-1.391.918 1.205 1.205 0 0 0 .908 1.418c.385.09 3.436 1.098 6.153 2.015-.046.247-.092.494-.119.747-.036.34-.055.685-.055 1.034 0 .744.091 1.466.249 2.164l-7.598 3.067-1.712.524c-.187.057-.37.13-.553.199-3.08.53-6.702-.763-8.503-3.229a5.589 5.589 0 0 1-.754-1.467c.008-.033.028-.059.033-.093a1.17 1.17 0 0 0-.269-.924c-.06-.536-.049-1.071.098-1.584.379-1.317 1.415-2.377 2.918-2.983l3.314-1.338a1.188 1.188 0 0 0 .519-1.806l-2.102-2.878c-.952-1.307-1.269-2.752-.89-4.069zm-32.882-8.583c3.514 1.574 8.716 3.277 14.779 3.277 10.211 0 16.029 3.476 16.142 3.546.027.017.057.017.085.032-.17.344-.321.699-.429 1.074-.48 1.669-.256 3.427.604 5.061-2.872-.964-7.83-2.723-11.94-4.663a1.202 1.202 0 0 0-1.596.566 1.189 1.189 0 0 0 .569 1.588c5.638 2.661 12.604 4.92 14.263 5.445L73 93.682a7.876 7.876 0 0 0-2.652 1.731c-.024.002-.046-.008-.07-.005-11.414 1.359-23.046-11.326-28.421-18.191zM18.024 99.618c6.75.071 16.97-.245 21.622-2.558 6.897-3.431 17.467-2.285 17.569-2.271.13.018.255 0 .377-.022 3.473 1.891 7.179 3.123 10.964 3.122.081 0 .162-.013.243-.014-.04.114-.087.224-.121.341a6.46 6.46 0 0 0-.246 1.609c-2.79-.289-8.48-.686-13.219.213-5.577 1.057-9.138 1.171-10.41 1.171-.662 0-1.198.533-1.198 1.192 0 .659.536 1.192 1.198 1.192 1.34 0 5.081-.119 10.86-1.213 4.794-.907 10.862-.37 13.172-.11a8.08 8.08 0 0 0 1.099 2.071c.853 1.167 2.002 2.116 3.303 2.831-3.942 1.377-21.724 5.988-55.213-7.554zm57.297 10.583c-1.252.366-5.429 1.638-6.583 2.623a1.193 1.193 0 1 0 .779 2.097c.276 0 .554-.094.779-.288.359-.306 1.883-.905 3.568-1.472-.403 1.199-.605 2.449-.533 3.686.056.963.27 1.856.614 2.664-1.167.32-4.381.322-6.585.312-2.241.003-4.55-.006-6.49.17-2.332.211-4.667.941-6.545 1.687 3.589-4.483 9.481-9.832 9.557-9.901.139-.126.231-.28.297-.443 7.062-.545 10.619-2.185 10.956-2.349.329-.16.536-.452.62-.779.355.1.713.186 1.075.254a12.022 12.022 0 0 0-1.47 1.735c-.013.004-.026 0-.039.004zm23.432 12.146c-.689 2.848-2.967 5.507-5.702 6.342h-.001c-1.554.477-3.033.305-4.168-.48-1.135-.785-1.812-2.105-1.906-3.719l-.207-3.556a1.195 1.195 0 0 0-1.548-1.072l-3.422 1.048c-1.552.477-3.032.305-4.168-.48-1.136-.785-1.813-2.106-1.906-3.72a7.38 7.38 0 0 1 .303-2.495c.723-2.469 2.623-4.737 4.939-5.72a9.44 9.44 0 0 0 1.764-.511l.712-.287 7.961-2.436a9.893 9.893 0 0 0 2.022 2.386l-4.127 5.364a1.186 1.186 0 0 0 .224 1.671 1.2 1.2 0 0 0 1.68-.222l4.22-5.484c.909.459 1.894.79 2.937.951l.469 8.041-.175 2.157a9.26 9.26 0 0 0 .099 2.222zm1.123-14.678c-.571 0-1.125-.07-1.659-.191a7.418 7.418 0 0 1-2.246-.937c-.036-.036-.057-.081-.099-.112-.096-.073-.205-.112-.313-.152a7.522 7.522 0 0 1-1.776-1.744 7.37 7.37 0 0 1-1.281-3.065 7.376 7.376 0 0 1-.114-1.251 7.4 7.4 0 0 1 2.098-5.159 7.504 7.504 0 0 1 2.724-1.796 7.478 7.478 0 0 1 2.668-.497c.914 0 1.786.172 2.596.471a7.495 7.495 0 0 1 2.922 1.96 7.394 7.394 0 0 1 1.971 5.021c0 .45-.047.888-.124 1.316a7.392 7.392 0 0 1-1.259 2.984 7.509 7.509 0 0 1-3.885 2.817 7.533 7.533 0 0 1-2.223.335zm22.518 13.121c-1.157.77-2.646.923-4.193.425l-4.842-1.552-.41 5.045c-.131 1.612-.841 2.923-2 3.692-1.157.771-2.647.921-4.192.425-1.023-.328-1.976-.913-2.799-1.667a9.348 9.348 0 0 1-2.024-2.681 8.693 8.693 0 0 1-.745-2.091c.072-.38.124-.763.152-1.146.028-.383.033-.767.011-1.149l-.123-2.102.662-8.143a9.806 9.806 0 0 0 1.964-.629c.139-.061.27-.137.405-.204l4.07 5.986a1.2 1.2 0 0 0 1.665.319c.548-.369.692-1.11.321-1.656l-4.054-5.963a9.956 9.956 0 0 0 2.077-2.426l8.127 2.606.758.31a9.405 9.405 0 0 0 1.78.523c1.612.612 3.028 1.856 4.007 3.373.245.379.462.776.648 1.183a8.33 8.33 0 0 1 .714 2.54c.047.431.054.863.02 1.29-.13 1.611-.84 2.922-1.999 3.692zm23.28.891c-1.877-.746-4.213-1.476-6.545-1.687-1.94-.176-4.25-.167-6.49-.17-2.092.009-5.09.007-6.376-.255a8.1 8.1 0 0 0 .519-2.278c.112-1.38-.119-2.78-.595-4.111 1.664.562 3.161 1.151 3.516 1.454a1.196 1.196 0 0 0 1.688-.129c.432-.5.373-1.252-.13-1.68-1.154-.985-5.33-2.258-6.583-2.623-.029-.009-.057-.002-.086-.008a11.613 11.613 0 0 0-1.328-1.53c.353-.07.703-.158 1.049-.259.111.243.289.457.55.584.337.164 3.893 1.804 10.956 2.349.065.163.157.317.297.443.077.068 5.97 5.416 9.558 9.9zm-18.68-14.43c1.193-.701 2.243-1.61 3.036-2.707a8.078 8.078 0 0 0 1.166-2.277c2.331-.263 8.361-.793 13.141.114 5.779 1.095 9.52 1.213 10.86 1.213.662 0 1.198-.533 1.198-1.192 0-.659-.536-1.192-1.198-1.192-1.272 0-4.833-.114-10.41-1.171-4.771-.904-10.505-.497-13.276-.207a6.503 6.503 0 0 0-.239-1.444c-.051-.177-.118-.347-.183-.517.118.002.237.021.355.021 3.784 0 7.49-1.233 10.963-3.124.123.022.247.04.378.023.102-.014 10.671-1.161 17.569 2.271 4.654 2.314 14.881 2.63 21.622 2.558-32.892 13.299-50.625 9.088-54.982 7.631z" fill="#242323" data-color="1"></path>
        <path fill="#242323" d="M104.569 100.216c0 2.69-2.19 4.869-4.893 4.869-2.702 0-4.893-2.18-4.893-4.869 0-2.69 2.19-4.869 4.893-4.869 2.702 0 4.893 2.18 4.893 4.869z" data-color="1"></path>
    </g>
</svg>